<?xml version="1.0" encoding="UTF-8"?>
<svg version="1.1" xmlns="http://www.w3.org/2000/svg" width="94" height="98">
<path d="M0 0 C3.08170226 3.55367987 4.54461054 7.58608969 6.13671875 11.94140625 C6.56317436 13.08753639 6.56317436 13.08753639 6.99824524 14.25682068 C7.59554864 15.86688433 8.18957474 17.47816714 8.78051758 19.09057617 C9.68674919 21.56045371 10.60526113 24.02550532 11.52539062 26.49023438 C12.10490199 28.05701989 12.68370265 29.62406849 13.26171875 31.19140625 C13.53666672 31.92895645 13.81161469 32.66650665 14.09489441 33.42640686 C15.18540072 36.41866502 16 38.78873769 16 42 C19.80632623 39.97699811 23.61074848 37.95046968 27.41357422 35.92089844 C28.70279181 35.2334441 29.99249169 34.54689333 31.28271484 33.86132812 C33.15595661 32.86575907 35.02759678 31.8672606 36.8984375 30.8671875 C37.81408478 30.37892487 37.81408478 30.37892487 38.74822998 29.88079834 C43.30774106 27.42784922 47.70030013 24.76913725 52.03369141 21.93798828 C54 21 54 21 57 22 C48.57241415 28.8843526 40.14084371 35.7548981 31.51904297 42.39575195 C28.47223842 44.7614792 25.65970472 47.20472781 23 50 C32.31041606 59.47316443 32.31041606 59.47316443 42.15625 68.37890625 C45.6059231 71.41198747 48.78575809 74.72161579 52 78 C52.99887197 79.00112676 53.99846036 80.00154202 55 81 C51.09059848 79.57706336 47.7850465 77.72854623 44.2890625 75.48046875 C43.20882812 74.78759766 42.12859375 74.09472656 41.015625 73.38085938 C40.45810547 73.02016357 39.90058594 72.65946777 39.32617188 72.2878418 C37.63971316 71.19701668 35.94877763 70.11312313 34.2578125 69.02929688 C29.71343301 66.10520507 25.19193483 63.18816846 20.8359375 59.98828125 C18.30431338 57.80864409 18.30431338 57.80864409 16 58 C15.6376123 58.75506836 15.27522461 59.51013672 14.90185547 60.28808594 C13.52713504 63.15124849 12.15153818 66.01398798 10.77539062 68.87646484 C9.89908617 70.69988144 9.02374813 72.52376238 8.1484375 74.34765625 C4.50059165 81.93351751 0.78922784 89.48374779 -3 97 C-4.74104133 93.51791733 -2.74302993 89.72088064 -1.7265625 86.125 C-1.48336273 85.24473145 -1.24016296 84.36446289 -0.98959351 83.45751953 C-0.47329889 81.5937957 0.04644312 79.73102401 0.56933594 77.86914062 C1.37115937 75.01367729 2.16307982 72.15561702 2.953125 69.296875 C3.45515269 67.48942312 3.95773824 65.68212607 4.4609375 63.875 C4.81881851 62.58746826 4.81881851 62.58746826 5.18392944 61.27392578 C5.40730988 60.47970215 5.63069031 59.68547852 5.86083984 58.8671875 C6.05704926 58.16706543 6.25325867 57.46694336 6.45541382 56.74560547 C7 55 7 55 8 53 C7.1020874 52.95174072 6.2041748 52.90348145 5.27905273 52.85375977 C-4.20569134 52.29000053 -13.52700094 51.25264629 -22.9375 49.9375 C-24.31438875 49.74887843 -25.6913418 49.56072565 -27.06835938 49.37304688 C-30.3795636 48.91993472 -33.69005485 48.46220389 -37 48 C-37 47.67 -37 47.34 -37 47 C-31.19122011 46.05179039 -25.43953154 45.68907819 -19.5625 45.4375 C-18.67884766 45.39431641 -17.79519531 45.35113281 -16.88476562 45.30664062 C-8.5891859 44.93624975 -0.30160696 44.95872455 8 45 C7.75765625 43.77893555 7.5153125 42.55787109 7.265625 41.29980469 C6.36727293 36.76816527 5.47390222 32.23555575 4.58203125 27.70263672 C4.19536921 25.74110536 3.80735777 23.7798395 3.41796875 21.81884766 C2.85842378 18.99971165 2.30374256 16.1796557 1.75 13.359375 C1.57500977 12.48319519 1.40001953 11.60701538 1.21972656 10.70428467 C1.05956055 9.88373596 0.89939453 9.06318726 0.734375 8.21777344 C0.52119629 7.13855621 0.52119629 7.13855621 0.30371094 6.03753662 C0 4 0 4 0 0 Z " fill="#DA5927" transform="translate(37,0)"/>
</svg>
