<?xml version="1.0" encoding="UTF-8"?>
<svg version="1.1" xmlns="http://www.w3.org/2000/svg" width="60" height="61">
<path d="M0 0 C1.08549702 4.34198807 0.80971676 5.37309204 -0.65234375 9.421875 C-1.19858398 10.95908203 -1.19858398 10.95908203 -1.75585938 12.52734375 C-2.14580078 13.59082031 -2.53574219 14.65429688 -2.9375 15.75 C-3.32357422 16.82894531 -3.70964844 17.90789063 -4.10742188 19.01953125 C-5.0621254 21.68327196 -6.02660643 24.34304418 -7 27 C-6.14019531 27.10957031 -5.28039063 27.21914063 -4.39453125 27.33203125 C3.87883972 28.44176367 11.89525293 29.98054475 20 32 C20 32.33 20 32.66 20 33 C10.76 33 1.52 33 -8 33 C-7.34 35.97 -6.68 38.94 -6 42 C-5.75157539 43.67324758 -5.53200957 45.35161655 -5.3671875 47.03515625 C-5.28339844 47.86337891 -5.19960938 48.69160156 -5.11328125 49.54492188 C-5.03464844 50.37572266 -4.95601562 51.20652344 -4.875 52.0625 C-4.78863281 52.92810547 -4.70226563 53.79371094 -4.61328125 54.68554688 C-4.40400971 56.78988844 -4.20130332 58.89488124 -4 61 C-6.29944856 58.70055144 -6.75117696 57.17470586 -7.7265625 54.09765625 C-8.0359375 53.12505859 -8.3453125 52.15246094 -8.6640625 51.15039062 C-8.98117188 50.13138672 -9.29828125 49.11238281 -9.625 48.0625 C-10.11226562 46.53979492 -10.11226562 46.53979492 -10.609375 44.98632812 C-13 37.39760045 -13 37.39760045 -13 34 C-14.07483643 34.55312866 -14.07483643 34.55312866 -15.17138672 35.11743164 C-18.40176817 36.77404423 -21.63823406 38.41839925 -24.875 40.0625 C-26.00292969 40.64322266 -27.13085938 41.22394531 -28.29296875 41.82226562 C-29.36933594 42.36689453 -30.44570313 42.91152344 -31.5546875 43.47265625 C-33.04718018 44.23461304 -33.04718018 44.23461304 -34.56982422 45.01196289 C-35.37178223 45.33801514 -36.17374023 45.66406738 -37 46 C-37.66 45.67 -38.32 45.34 -39 45 C-19.63106796 30 -19.63106796 30 -17 30 C-22.92704727 22.46950033 -29.09518644 15.64534248 -36 9 C-32.33529819 9 -31.48914819 9.87089337 -28.62109375 12.0625 C-27.78255859 12.69414062 -26.94402344 13.32578125 -26.08007812 13.9765625 C-24.77200195 14.97816406 -24.77200195 14.97816406 -23.4375 16 C-21.71024676 17.31672874 -19.9799282 18.62944937 -18.24609375 19.9375 C-17.47966553 20.52402344 -16.7132373 21.11054688 -15.92358398 21.71484375 C-14.10840008 23.18517598 -14.10840008 23.18517598 -12 23 C-6.06 11.615 -6.06 11.615 0 0 Z " fill="#DB5826" transform="translate(39,0)"/>
</svg>
